<svg id="Layer_1" data-name="Layer 1" xmlns="http://www.w3.org/2000/svg" viewBox="0 0 161.89 161.89"><defs><style>.cls-1{fill:#EDBF00;}.cls-2{fill:#fff;}</style></defs><path class="cls-1" d="M693.84,366.69l6.67,6.05L690.22,384.6l-7.17-6.48Z" transform="translate(-602.56 -303.56)"/><path class="cls-1" d="M700,360a5.39,5.39,0,0,1,1.24-1.29l6.5,5.88a4.83,4.83,0,0,1-1.14,1.38Z" transform="translate(-602.56 -303.56)"/><path class="cls-2" d="M619.72,384.5a63.29,63.29,0,0,1,8.62-31.94h-3.46a66.65,66.65,0,0,0-2.86,58h3.29A63.42,63.42,0,0,1,619.72,384.5Z" transform="translate(-602.56 -303.56)"/><path class="cls-2" d="M747.28,384.5a63.42,63.42,0,0,1-5.59,26.06H745a66.65,66.65,0,0,0-2.86-58h-3.46A63.29,63.29,0,0,1,747.28,384.5Z" transform="translate(-602.56 -303.56)"/><path class="cls-2" d="M634.46,349.78l-7.73-6.32,1.61-2,3.39,2.77,0,0-1.25-5.41,1.73-2.11,1.23,5.5,6.62.67-1.88,2.31-4.64-.5.3,1.34,2.19,1.78Z" transform="translate(-602.56 -303.56)"/><path class="cls-2" d="M645.57,335.26,643,337.32l.89,2.1-2,1.63-3.69-9.86,2.41-2,8.9,5.63-2.09,1.7Zm-3.31.33,1.77-1.44-3.29-2.29,0,0Z" transform="translate(-602.56 -303.56)"/><path class="cls-2" d="M651.39,322.38c2.68-1.38,5.05-.63,6.51,2.19s.72,5.3-1.95,6.68l-3.61,1.85-4.56-8.87Zm2.27,7.74,1.06-.54c1.47-.76,1.8-2.05.88-3.82s-2.15-2.15-3.57-1.41l-1,.54Z" transform="translate(-602.56 -303.56)"/><path class="cls-2" d="M666,327.13l-2.44.68-2.68-9.6,4.11-1.15c2.39-.67,4,.15,4.57,2.13a3,3,0,0,1-.88,3.18l3,3.18-2.74.77-2.59-2.9-1.25.35Zm-1.4-5,1.43-.4a1.35,1.35,0,0,0,1.05-1.76,1.38,1.38,0,0,0-1.82-1l-1.43.4Z" transform="translate(-602.56 -303.56)"/><path class="cls-2" d="M677.53,324.84l-.26-3.42-3.94-6.27,2.72-.21,2.3,4h0l1.65-4.29,2.67-.21-2.92,6.8.26,3.42Z" transform="translate(-602.56 -303.56)"/><path class="cls-2" d="M691,325.18c-2.68-.33-4.19-2.59-3.81-5.71s2.36-4.84,5.06-4.51a3.94,3.94,0,0,1,3.67,3.63l-1-.12a3.08,3.08,0,0,0-2.8-2.64c-2.15-.27-3.69,1.17-4,3.75s.84,4.47,3,4.73a3,3,0,0,0,3.56-2.7l0-.35-3.08-.38.11-.82,4,.49-.12.95A3.84,3.84,0,0,1,691,325.18Z" transform="translate(-602.56 -303.56)"/><path class="cls-2" d="M699.84,326.77l-.89-.29L702,317l3.35,1.09a2.87,2.87,0,0,1,2.14,3.76,2.77,2.77,0,0,1-2.91,2l1,4.78-1.05-.34-.92-4.6-.14,0-2.38-.78Zm1.52-4.68,2.38.77a2.11,2.11,0,1,0,1.27-4l-2.34-.77Z" transform="translate(-602.56 -303.56)"/><path class="cls-2" d="M719,329.91c-1.53,2.76-4,3.64-6.46,2.29s-3-3.93-1.46-6.69,4-3.66,6.46-2.31S720.48,327.15,719,329.91ZM711.87,326c-1.27,2.28-.86,4.39,1,5.45s3.92.29,5.19-2,.87-4.41-1-5.47S713.15,323.69,711.87,326Z" transform="translate(-602.56 -303.56)"/><path class="cls-2" d="M722.65,334.44a2.92,2.92,0,0,0,4.43,3.79l4.19-4.88.72.62-4.22,4.92a3.87,3.87,0,0,1-5.87-5l4.23-4.93.71.61Z" transform="translate(-602.56 -303.56)"/><path class="cls-2" d="M738.28,341.07a3.1,3.1,0,1,1-4.84,3.88L731.91,343,729,345.39l-.59-.73,7.77-6.23Zm-5.71,1.45,1.39,1.73a2.27,2.27,0,1,0,3.53-2.82l-1.4-1.74Z" transform="translate(-602.56 -303.56)"/><path class="cls-2" d="M624.27,419.48l4.48-2.71-1-1.57.94-.56,2.58,4.26-.93.57-.95-1.57L625,420.62Z" transform="translate(-602.56 -303.56)"/><path class="cls-2" d="M633.54,427.12a3.06,3.06,0,1,1,.7-4.43C635.4,424.17,635.13,425.87,633.54,427.12Zm-2.93-3.76c-1.05.82-1.3,1.86-.66,2.68s1.71.82,2.75,0,1.31-1.86.67-2.68S631.66,422.54,630.61,423.36Z" transform="translate(-602.56 -303.56)"/><path class="cls-2" d="M639.6,433.35a3.07,3.07,0,1,1,.12-4.48A3,3,0,0,1,639.6,433.35ZM636.21,430c-.93.94-1.05,2-.31,2.74s1.8.59,2.73-.35,1.06-2,.32-2.75S637.14,429.06,636.21,430Z" transform="translate(-602.56 -303.56)"/><path class="cls-2" d="M643,440.14l-3.23-2.52,3.9-5,1,.82-3.22,4.13,2.19,1.71Z" transform="translate(-602.56 -303.56)"/><path class="cls-2" d="M647.32,440.89c-.22.47.07,1.05.66,1.42s1.19.34,1.44-.06.08-.71-.48-1.25l-.61-.59a1.82,1.82,0,0,1-.56-2.42c.62-1,1.88-1.12,3.08-.38s1.65,1.91,1.07,2.89l-1.06-.65a1,1,0,0,0-.55-1.35c-.56-.34-1.09-.31-1.34.09s-.06.68.47,1.21l.57.54c.94.9,1.13,1.65.62,2.47-.65,1.05-1.9,1.19-3.24.37s-1.74-1.93-1.15-3Z" transform="translate(-602.56 -303.56)"/><path class="cls-2" d="M661,449.56l1.53-4h0l-3.12,3.32-.78-.3-.1-4.56h0L657,448l-1.11-.42,2.27-5.93,1.44.55.07,4.85h0l3.29-3.55,1.43.54L662.13,450Z" transform="translate(-602.56 -303.56)"/><path class="cls-2" d="M669.33,450.25l-2.17-.5-.82,1.39-1.33-.31,3.58-5.69,1.52.35.72,6.69-1.37-.32Zm-1.67-1.41,1.62.38-.21-2.72h0Z" transform="translate(-602.56 -303.56)"/><path class="cls-2" d="M673.74,452.63l.66-6.29,1.32.13-.31,2.88h0l2.67-2.62,1.47.15L677,449.43l2.13,3.76-1.58-.16-1.59-2.83-.66.65-.2,1.92Z" transform="translate(-602.56 -303.56)"/><path class="cls-2" d="M686.15,453.23l-4.2.08-.11-6.34,4.2-.08,0,1.1-2.87.05,0,1.53,2.71-.05,0,1-2.71,0,0,1.6,2.87-.05Z" transform="translate(-602.56 -303.56)"/><path class="cls-2" d="M690.14,451.16c.12.51.7.79,1.4.7s1.14-.47,1.09-.94-.38-.6-1.16-.68l-.84-.08c-1.19-.11-1.83-.63-1.94-1.55-.14-1.16.77-2.05,2.18-2.22s2.47.47,2.63,1.61l-1.24.15c-.1-.53-.61-.8-1.27-.72s-1,.44-1,.91.38.57,1.12.65l.78.07c1.3.12,1.91.59,2,1.55.14,1.23-.76,2.12-2.32,2.3s-2.56-.42-2.74-1.6Z" transform="translate(-602.56 -303.56)"/><path class="cls-2" d="M702.63,450.58l-.68-2.27-3.26-3.17,1.39-.42,2.14,2.19h0l.58-3,1.37-.42-1,4.45.69,2.27Z" transform="translate(-602.56 -303.56)"/><path class="cls-2" d="M712.58,443.42a3.07,3.07,0,1,1-4.11-1.79A3,3,0,0,1,712.58,443.42Zm-4.37,1.9c.53,1.22,1.48,1.72,2.43,1.31s1.23-1.45.7-2.67-1.48-1.73-2.43-1.31S707.68,444.1,708.21,445.32Z" transform="translate(-602.56 -303.56)"/><path class="cls-2" d="M716.58,442.1a1.33,1.33,0,1,0,2.28-1.37l-2.06-3.41,1.14-.68,2.12,3.51a2.68,2.68,0,0,1-4.55,2.75l-2.12-3.51,1.13-.69Z" transform="translate(-602.56 -303.56)"/><path class="cls-2" d="M725,439.34l-1,.82-3.9-5,2-1.6a2,2,0,0,1,3.05.18,1.87,1.87,0,0,1,.2,2.13L728,437l-1.19.92-2.36-1.1-.83.65Zm-2-2.59.9-.7a1,1,0,0,0,.21-1.45,1,1,0,0,0-1.47-.13l-.89.69Z" transform="translate(-602.56 -303.56)"/><path class="cls-2" d="M729.83,426.36a2.8,2.8,0,0,1,4.36-.14,2.85,2.85,0,0,1,.35,4.39l-1.62,1.8-4.71-4.25Zm3.16,4.33.63-.7c.79-.88.69-1.84-.33-2.76a1.77,1.77,0,0,0-2.76,0l-.62.69Z" transform="translate(-602.56 -303.56)"/><path class="cls-2" d="M739.19,422.2,737.91,424l1,1.28-.78,1.12L734.18,421l.89-1.28,6.46,1.83-.8,1.15Zm-1.93,1,1-1.36-2.59-.82,0,0Z" transform="translate(-602.56 -303.56)"/><path class="cls-2" d="M743.46,418.23l-2.08-1.14h-4.54l.7-1.26,3.05.06,0,0-1.68-2.55.68-1.25,2.41,3.86,2.08,1.14Z" transform="translate(-602.56 -303.56)"/><path class="cls-2" d="M683.5,465.44a80.94,80.94,0,1,1,80.94-80.94A81,81,0,0,1,683.5,465.44Zm0-158.88a77.94,77.94,0,1,0,77.94,77.94A78,78,0,0,0,683.5,306.56Z" transform="translate(-602.56 -303.56)"/><path class="cls-1" d="M679.77,361.81c0-.11-.07-.15-.06-.17a17,17,0,0,1,6.42-6.25,8.12,8.12,0,0,1,9.37,1.14c2.15,1.86,4.23,3.78,6.34,5.69l7.86,7.13c.16.15.34.27.54.43a17.94,17.94,0,0,0,1.55-1.58l5.52,5-8.38,9.26-5.43-5c.26-.69.92-1,1.18-1.64l-3.5-3.18c-3.36-3.05-6.8-6-10.07-9.15-2.85-2.73-6.09-3.17-9.71-2.21C680.85,361.46,680.31,361.65,679.77,361.81Z" transform="translate(-602.56 -303.56)"/><path class="cls-2" d="M683.5,438.28a53.78,53.78,0,1,1,53.78-53.78A53.85,53.85,0,0,1,683.5,438.28Zm0-104.56a50.78,50.78,0,1,0,50.78,50.78A50.84,50.84,0,0,0,683.5,333.72Z" transform="translate(-602.56 -303.56)"/><path class="cls-1" d="M660.15,360.63c5.1-2.32,13.45,1.91,12,10.72l25.4,23a2.63,2.63,0,0,0,1.18-.11,9.17,9.17,0,0,1,10.52,5.54,10.4,10.4,0,0,1,.51,4.79,1.39,1.39,0,0,1-.14.42c0,.06-.09.11-.19.21l-7.19-6.49-6.45,7.14,7.17,6.52c-2,1.16-5.73.75-8-.87-3.42-2.43-4.47-5.78-3.77-9.94-8.38-7.74-17-15.35-25.51-23.08-3.88,1.05-7.35.49-10.09-2.62a8.83,8.83,0,0,1-1.95-8.17l7.32,6.61,6.42-7.14C664.9,365,662.53,362.81,660.15,360.63Z" transform="translate(-602.56 -303.56)"/><path class="cls-1" d="M673.27,388.46l7.64,6.89-16.73,19.31L655.72,407Z" transform="translate(-602.56 -303.56)"/></svg>