<svg id="Layer_1" data-name="Layer 1" xmlns="http://www.w3.org/2000/svg" xmlns:xlink="http://www.w3.org/1999/xlink" viewBox="0 0 452.1 403.8"><defs><style>.cls-1{fill:url(#linear-gradient);}.cls-2{fill:#EDBF00;}</style><linearGradient id="linear-gradient" x1="156.45" y1="328.86" x2="839.45" y2="-248.14" gradientTransform="matrix(1, 0, 0, -1, 0, 454)" gradientUnits="userSpaceOnUse"><stop offset="0" stop-color="#fff"/><stop offset="1" stop-color="#b6b4b5"/></linearGradient></defs><path class="cls-1" d="M415.6,24H36.4A36.4,36.4,0,0,0,0,60.4v247a36.4,36.4,0,0,0,36.4,36.4H164.1v72H136.2a6,6,0,0,0,0,12h185a6,6,0,0,0,0-12H288v-72H415.7a36.4,36.4,0,0,0,36.4-36.4V60.4A36.55,36.55,0,0,0,415.6,24ZM275.9,415.8H176v-72h99.9ZM440,307.4a24.37,24.37,0,0,1-24.4,24.4H36.4A24.37,24.37,0,0,1,12,307.4V287.6a5.93,5.93,0,0,0,2.3.5H437.7a5.93,5.93,0,0,0,2.3-.5v19.8Zm0-30.9a5.93,5.93,0,0,0-2.3-.5H14.3a5.93,5.93,0,0,0-2.3.5V60.4A24.37,24.37,0,0,1,36.4,36H415.6A24.37,24.37,0,0,1,440,60.4Z" transform="translate(0 -24)"/><path class="cls-2" d="M286.3,196.6c-1.8-2.2-3.7-4.4-5.8-6.5a77.34,77.34,0,0,0-29.3-18.4,44.6,44.6,0,1,0-50.4,0,77.34,77.34,0,0,0-29.3,18.4,76.53,76.53,0,0,0-22.6,54.6H161a65.05,65.05,0,0,1,108.9-48.1Zm-60.3-29a32.5,32.5,0,1,1,32.5-32.5A32.56,32.56,0,0,1,226,167.6Z" transform="translate(0 -24)"/><polygon class="cls-2" points="335.9 177.6 304.2 177.6 304.2 146 292.8 146 292.8 177.6 261.1 177.6 261.1 189.1 292.8 189.1 292.8 220.7 304.2 220.7 304.2 189.1 335.9 189.1 335.9 177.6"/></svg>