<svg id="Layer_1" data-name="Layer 1" xmlns="http://www.w3.org/2000/svg" xmlns:xlink="http://www.w3.org/1999/xlink" viewBox="0 0 452 403.8"><defs><style>.cls-1{fill:url(#linear-gradient);}.cls-2{fill:#EDBF00;}</style><linearGradient id="linear-gradient" x1="156.45" y1="280.86" x2="839.45" y2="-296.14" gradientTransform="matrix(1, 0, 0, -1, 0, 382)" gradientUnits="userSpaceOnUse"><stop offset="0" stop-color="#fff"/><stop offset="1" stop-color="#b6b4b5"/></linearGradient></defs><path class="cls-1" d="M415.61,0H36.4A36.43,36.43,0,0,0,0,36.39v247A36.43,36.43,0,0,0,36.4,319.8H164.05v72H136.11a6,6,0,0,0,0,12h185a6,6,0,0,0,0-12H288v-72H415.61A36.43,36.43,0,0,0,452,283.41v-247A36.42,36.42,0,0,0,415.61,0ZM276,391.81H176.1v-72H276Zm164-108.4a24.43,24.43,0,0,1-24.39,24.39H36.4A24.42,24.42,0,0,1,12,283.41V263.57a5.93,5.93,0,0,0,2.31.47H437.69a5.93,5.93,0,0,0,2.31-.47Zm0-30.91a6.1,6.1,0,0,0-2.31-.46H14.31a6.1,6.1,0,0,0-2.31.46V36.39A24.42,24.42,0,0,1,36.4,12H415.61A24.43,24.43,0,0,1,440,36.39Z"/><path class="cls-2" d="M280.56,166.16a76.81,76.81,0,0,0-29.32-18.39,44.6,44.6,0,1,0-50.48,0,77.27,77.27,0,0,0-51.91,72.94H160.9a65.1,65.1,0,0,1,130.2,0h12A76.62,76.62,0,0,0,280.56,166.16ZM226,143.56A32.55,32.55,0,1,1,258.55,111,32.55,32.55,0,0,1,226,143.56Z"/></svg>