<svg id="Layer_1" data-name="Layer 1" xmlns="http://www.w3.org/2000/svg" xmlns:xlink="http://www.w3.org/1999/xlink" viewBox="0 0 452 403.8"><defs><style>.cls-1{fill:url(#linear-gradient);}.cls-2{fill:#EDBF00;}</style><linearGradient id="linear-gradient" x1="156.45" y1="280.86" x2="839.45" y2="-296.14" gradientTransform="matrix(1, 0, 0, -1, 0, 382)" gradientUnits="userSpaceOnUse"><stop offset="0" stop-color="#fff"/><stop offset="1" stop-color="#b6b4b5"/></linearGradient></defs><path class="cls-1" d="M415.61,0H36.4A36.43,36.43,0,0,0,0,36.39v247A36.43,36.43,0,0,0,36.4,319.8H164.05v72H136.11a6,6,0,0,0,0,12h185a6,6,0,0,0,0-12H288v-72H415.61A36.43,36.43,0,0,0,452,283.41v-247A36.42,36.42,0,0,0,415.61,0ZM276,391.81H176.1v-72H276Zm164-108.4a24.43,24.43,0,0,1-24.39,24.39H36.4A24.42,24.42,0,0,1,12,283.41V263.57a5.93,5.93,0,0,0,2.31.47H437.69a5.93,5.93,0,0,0,2.31-.47Zm0-30.91a6.1,6.1,0,0,0-2.31-.46H14.31a6.1,6.1,0,0,0-2.31.46V36.39A24.42,24.42,0,0,1,36.4,12H415.61A24.43,24.43,0,0,1,440,36.39Z"/><path class="cls-2" d="M412,125.9H40a10,10,0,0,0-10,10v48a10,10,0,0,0,10,10H412a10,10,0,0,0,10-10v-48A10,10,0,0,0,412,125.9Zm-2,56H42v-44H410Z"/><path class="cls-2" d="M119.35,171.16a11.26,11.26,0,1,0-11.26-11.26h0A11.26,11.26,0,0,0,119.35,171.16Zm0-12a.74.74,0,1,1-.74.74.74.74,0,0,1,.74-.74Z"/><path class="cls-2" d="M172.68,171.16a11.26,11.26,0,1,0-11.27-11.26,11.26,11.26,0,0,0,11.27,11.26Zm0-12a.74.74,0,1,1-.74.74.74.74,0,0,1,.74-.74Z"/><path class="cls-2" d="M226,171.16a11.26,11.26,0,1,0-11.26-11.26h0A11.26,11.26,0,0,0,226,171.16Zm0-12a.74.74,0,1,1-.74.74.74.74,0,0,1,.74-.74Z"/><path class="cls-2" d="M279.32,171.16a11.26,11.26,0,1,0-11.26-11.26,11.26,11.26,0,0,0,11.26,11.26Zm0-12a.74.74,0,1,1-.73.75h0A.75.75,0,0,1,279.32,159.16Z"/><path class="cls-2" d="M332.65,171.16a11.26,11.26,0,1,0-11.26-11.26,11.26,11.26,0,0,0,11.26,11.26Zm0-12a.74.74,0,1,1-.74.74h0A.74.74,0,0,1,332.65,159.16Z"/><path class="cls-2" d="M66,171.16a11.26,11.26,0,1,0-11.24-11.28v0A11.27,11.27,0,0,0,66,171.16Zm0-12a.74.74,0,1,1-.73.75h0A.75.75,0,0,1,66,159.16Z"/><path class="cls-2" d="M386,171.16a11.26,11.26,0,1,0-11.27-11.26A11.26,11.26,0,0,0,386,171.16Zm0-12a.74.74,0,1,1-.74.74A.74.74,0,0,1,386,159.16Z"/></svg>